<svg width="80" height="80" viewBox="0 0 80 80" xmlns="http://www.w3.org/2000/svg">
  <defs>
    <!-- Aurora gradient -->
    <radialGradient id="auroraGradient" cx="50%" cy="30%" r="70%">
      <stop offset="0%" style="stop-color:#FF6B73;stop-opacity:1" />
      <stop offset="30%" style="stop-color:#FFB347;stop-opacity:0.9" />
      <stop offset="60%" style="stop-color:#8E44AD;stop-opacity:0.8" />
      <stop offset="100%" style="stop-color:#2C3E50;stop-opacity:1" />
    </radialGradient>
    
    <!-- Background gradient -->
    <linearGradient id="bgGradient" x1="0%" y1="0%" x2="100%" y2="100%">
      <stop offset="0%" style="stop-color:#2D1B69;stop-opacity:1" />
      <stop offset="50%" style="stop-color:#11998E;stop-opacity:1" />
      <stop offset="100%" style="stop-color:#4A69BD;stop-opacity:1" />
    </linearGradient>
    
    <!-- Glow effect -->
    <filter id="glow">
      <feGaussianBlur stdDeviation="2" result="coloredBlur"/>
      <feMerge> 
        <feMergeNode in="coloredBlur"/>
        <feMergeNode in="SourceGraphic"/>
      </feMerge>
    </filter>
  </defs>
  
  <!-- Background circle -->
  <circle cx="40" cy="40" r="38" fill="url(#bgGradient)" stroke="#FFB347" stroke-width="2"/>
  
  <!-- Aurora waves -->
  <path d="M 10,40 Q 20,25 30,40 T 50,40 T 70,40" stroke="#FF6B73" stroke-width="2" fill="none" opacity="0.8" filter="url(#glow)"/>
  <path d="M 10,45 Q 20,30 30,45 T 50,45 T 70,45" stroke="#FFB347" stroke-width="1.5" fill="none" opacity="0.6"/>
  <path d="M 10,35 Q 20,20 30,35 T 50,35 T 70,35" stroke="#8E44AD" stroke-width="1.5" fill="none" opacity="0.6"/>
  
  <!-- Central time symbol -->
  <circle cx="40" cy="40" r="12" fill="none" stroke="#FFFFFF" stroke-width="2" opacity="0.9"/>
  
  <!-- Clock hands -->
  <line x1="40" y1="40" x2="40" y2="32" stroke="#FFFFFF" stroke-width="2" stroke-linecap="round" filter="url(#glow)"/>
  <line x1="40" y1="40" x2="46" y2="40" stroke="#FFFFFF" stroke-width="1.5" stroke-linecap="round" filter="url(#glow)"/>
  
  <!-- Decorative particles -->
  <circle cx="25" cy="25" r="1.5" fill="#FFB347" opacity="0.8"/>
  <circle cx="55" cy="25" r="1" fill="#FF6B73" opacity="0.7"/>
  <circle cx="25" cy="55" r="1" fill="#8E44AD" opacity="0.7"/>
  <circle cx="55" cy="55" r="1.5" fill="#3498DB" opacity="0.8"/>
  
  <!-- Center dot -->
  <circle cx="40" cy="40" r="2" fill="#FFFFFF" filter="url(#glow)"/>
</svg>
